<svg width="284" height="284" viewBox="0 0 284 284" fill="none" xmlns="http://www.w3.org/2000/svg">
<g clip-path="url(#clip0_342_161)">
<path d="M141.73 283.46C122.6 283.46 104.04 279.71 86.56 272.32C69.68 265.18 54.53 254.96 41.51 241.95C28.5 228.94 18.28 213.78 11.14 196.9C3.75 179.42 0 160.86 0 141.73C0 122.6 3.75 104.04 11.14 86.56C18.28 69.68 28.5 54.53 41.51 41.51C54.53 28.5 69.68 18.28 86.56 11.14C104.04 3.75 122.6 0 141.73 0C160.86 0 179.42 3.75 196.9 11.14C213.78 18.28 228.93 28.5 241.95 41.51C254.96 54.52 265.18 69.68 272.32 86.56C279.71 104.04 283.46 122.6 283.46 141.73C283.46 160.86 279.71 179.42 272.32 196.9C265.18 213.78 254.96 228.93 241.95 241.95C228.94 254.96 213.78 265.18 196.9 272.32C179.42 279.72 160.86 283.46 141.73 283.46Z" fill="white"/>
<path d="M142.475 272.95C214.534 272.95 272.95 214.534 272.95 142.475C272.95 70.4156 214.534 12 142.475 12C70.4156 12 12 70.4156 12 142.475C12 214.534 70.4156 272.95 142.475 272.95Z" fill="black"/>
<path d="M212.431 141.73C212.431 127.35 208.111 113.97 200.711 102.79L222.661 80.84L202.921 61.1L181.031 82.99C169.791 75.44 156.271 71.03 141.741 71.03C127.361 71.03 113.981 75.35 102.801 82.75L80.8408 60.8L61.1008 80.5401L82.9908 102.43C75.4408 113.67 71.0308 127.19 71.0308 141.72C71.0308 156.1 75.3508 169.48 82.7508 180.66L60.8008 202.62L80.5408 222.36L102.431 200.47C113.671 208.02 127.191 212.43 141.721 212.43C156.101 212.43 169.481 208.11 180.661 200.71L202.621 222.67L222.361 202.93L200.471 181.04C208.021 169.78 212.431 156.26 212.431 141.73ZM98.9608 141.73C98.9608 118.14 118.151 98.95 141.741 98.95C165.331 98.95 184.521 118.14 184.521 141.73C184.521 165.32 165.331 184.51 141.741 184.51C118.151 184.51 98.9608 165.32 98.9608 141.73Z" fill="white"/>
</g>
<defs>
<clipPath id="clip0_342_161">
<rect width="283.46" height="283.46" fill="white"/>
</clipPath>
</defs>
</svg>
