<svg width="32" height="21" viewBox="0 0 32 21" fill="none" xmlns="http://www.w3.org/2000/svg">
<path d="M13.334 20.9042H18.6354C18.4439 20.4136 18.2943 19.9076 18.1883 19.3917C17.607 16.5965 18.3096 14.0502 18.6354 13.0547H13.334C13.7044 14.6118 14.0813 17.0688 13.5895 19.7683C13.5192 20.1703 13.4298 20.5532 13.334 20.9042Z" fill="#4040B7"/>
<path d="M28.3012 0.0996094H3.37827C2.78211 0.0996094 2.29883 0.582475 2.29883 1.17812V16.1879C2.29883 16.7836 2.78211 17.2664 3.37827 17.2664H28.3012C28.8974 17.2664 29.3807 16.7836 29.3807 16.1879V1.17812C29.3807 0.582475 28.8974 0.0996094 28.3012 0.0996094Z" fill="#5050E5"/>
<path d="M28.11 0.609375H3.63413C3.03797 0.609375 2.55469 1.09224 2.55469 1.68789V15.84C2.55469 16.4356 3.03797 16.9185 3.63413 16.9185H28.11C28.7061 16.9185 29.1894 16.4356 29.1894 15.84V1.68789C29.1894 1.09224 28.7061 0.609375 28.11 0.609375Z" fill="#221A7E"/>
<path opacity="0.22" d="M10.8134 0.609375C9.9 2.01335 8.95469 3.39181 7.98383 4.75749C6.22734 7.2336 4.39421 9.65866 2.55469 12.0709V15.8425C2.55514 15.9754 2.57892 16.1072 2.62495 16.2318L3.87046 14.5343C5.02867 12.9516 6.13366 11.3392 7.18543 9.69694C9.12714 6.68477 10.9922 3.62155 12.9403 0.609375H10.8134Z" fill="white"/>
<path opacity="0.22" d="M21.1229 0.609375C19.9093 2.59409 18.7533 4.61071 17.6035 6.63372C15.6491 10.099 13.7201 13.5962 11.5293 16.9211H15.0359C16.1345 15.3639 17.2139 13.794 18.1784 12.1539C20.3948 8.3504 22.4004 4.43203 24.5848 0.609375H21.1229Z" fill="white"/>
<path opacity="0.22" d="M25.6134 0.609375C24.3551 2.7983 23.1543 5.02553 21.9408 7.24636C20.8485 9.26299 19.7372 11.2732 18.5683 13.2452C17.821 14.5088 16.9843 15.7213 16.1348 16.9211H17.936L20.7208 11.7072C22.7008 8.00579 24.6745 4.30652 26.6418 0.609375H25.6134Z" fill="white"/>
<path d="M2.29885 14.3301V16.1872C2.298 16.329 2.32534 16.4697 2.37929 16.6009C2.43323 16.7321 2.51271 16.8514 2.61312 16.9517C2.71352 17.052 2.83286 17.1314 2.9642 17.1853C3.09555 17.2392 3.2363 17.2665 3.37829 17.2657H28.3012C28.4432 17.2665 28.584 17.2392 28.7153 17.1853C28.8467 17.1314 28.966 17.052 29.0664 16.9517C29.1668 16.8514 29.2463 16.7321 29.3002 16.6009C29.3542 16.4697 29.3815 16.329 29.3807 16.1872V14.3301H2.29885Z" fill="#5959FF"/>
<path d="M29.6679 3.0332H24.2883C23.3438 3.0332 22.5781 3.79888 22.5781 4.74339V10.123C22.5781 11.0675 23.3438 11.8332 24.2883 11.8332H29.6679C30.6124 11.8332 31.3781 11.0675 31.3781 10.123V4.74339C31.3781 3.79888 30.6124 3.0332 29.6679 3.0332Z" fill="#5050E5"/>
<path d="M8.50222 8.45508H1.36428C0.807127 8.45508 0.355469 8.90458 0.355469 9.45907V12.4289C0.355469 12.9834 0.807127 13.4329 1.36428 13.4329H8.50222C9.05937 13.4329 9.51102 12.9834 9.51102 12.4289V9.45907C9.51102 8.90458 9.05937 8.45508 8.50222 8.45508Z" fill="#5050E5"/>
<path d="M30.289 2.41016H24.9094C23.9649 2.41016 23.1992 3.18357 23.1992 4.13762V9.57158C23.1992 10.5256 23.9649 11.299 24.9094 11.299H30.289C31.2335 11.299 31.9992 10.5256 31.9992 9.57158V4.13762C31.9992 3.18357 31.2335 2.41016 30.289 2.41016Z" fill="#6678FF"/>
<g opacity="0.66">
<path d="M12.9527 5.14116L12.876 5.09649C12.5659 4.92196 12.2293 4.7991 11.8796 4.73273C11.7182 4.69757 11.5527 4.68469 11.3878 4.69444C11.3463 4.69683 11.3054 4.70543 11.2664 4.71997C11.235 4.73308 11.2067 4.75265 11.1834 4.7774L11.1706 4.79016L11.1515 4.80931C11.1454 4.82548 11.1368 4.84057 11.1259 4.85398V4.88589C11.1259 4.89865 11.1195 4.90504 11.1195 4.9178C11.1122 4.93614 11.1079 4.95553 11.1067 4.97523C11.1004 4.988 11.1004 4.98162 11.1004 5.00076V5.03267C11.1004 5.0582 11.094 5.07734 11.094 5.10287C11.0951 5.15414 11.0993 5.20529 11.1067 5.25603C11.1187 5.35048 11.1358 5.44422 11.1578 5.53683L11.2345 5.79209C11.285 5.95664 11.3491 6.11673 11.4261 6.27072C11.4644 6.34092 11.5028 6.41112 11.5475 6.48132H11.6177C11.7391 6.47494 11.7391 6.66639 11.6177 6.67277C11.5674 6.67732 11.5167 6.66852 11.4708 6.64725C11.449 6.63902 11.4293 6.62592 11.4133 6.60895C11.3589 6.53846 11.3138 6.46124 11.2792 6.37921C11.1793 6.19713 11.1001 6.00449 11.0429 5.80486C10.9726 5.59831 10.9275 5.38404 10.9087 5.16669C10.896 4.95609 10.9279 4.71997 11.1067 4.58595C11.204 4.52496 11.3179 4.49595 11.4325 4.50299C11.6215 4.49997 11.8101 4.51925 11.9946 4.56042C12.3653 4.64331 12.7208 4.78325 13.0485 4.97523C13.1507 5.03905 13.0549 5.20498 12.9527 5.14116Z" fill="#4040B7"/>
<path d="M19.9212 8.98899C19.9103 9.21931 19.8673 9.44699 19.7935 9.66545C19.5699 10.3164 19.0717 10.8205 18.4713 11.1588C17.8709 11.497 17.0534 11.7267 16.3061 11.8097C15.5203 11.8952 14.7262 11.8651 13.9492 11.7204C13.5982 11.6569 13.2539 11.5608 12.9208 11.4332C12.7803 11.3821 12.6462 11.3183 12.4993 11.2545C12.3275 11.1666 12.1611 11.0686 12.0011 10.9609C11.5786 10.6748 11.2621 10.2577 11.1005 9.77394C10.9408 9.27617 10.9727 8.75287 11.0813 8.24871C11.1709 7.78671 11.3257 7.33977 11.5412 6.92131C11.7676 6.48314 12.0606 6.08271 12.4099 5.73431C13.1316 5.01956 14.0833 4.54731 15.1053 4.48988C15.9548 4.44521 16.8043 4.67495 17.5452 5.08976C17.7508 5.19941 17.9473 5.32531 18.1328 5.46628H18.152L18.1775 5.49181C18.2542 5.54924 18.3244 5.61306 18.3947 5.67688C18.5822 5.84935 18.7572 6.03488 18.9184 6.23209C19.5316 7.00428 19.9787 7.99344 19.9212 8.98899Z" fill="#5959FF"/>
<path d="M20.1191 8.75353C20.1191 8.70885 20.1127 8.67056 20.1127 8.62589C20.0743 7.96857 19.8316 7.31764 19.4995 6.75605L19.4356 6.64756L19.3143 6.46249C18.9642 5.9383 18.5151 5.48741 17.9921 5.13509L17.9793 5.12233L17.7941 5.00746H17.7813L17.5578 4.87982C17.014 4.58774 16.4205 4.39945 15.8077 4.32461C15.3137 4.27204 14.8143 4.30661 14.3322 4.42672C14.1824 4.46386 14.0352 4.51076 13.8915 4.56712C13.5973 4.67686 13.3148 4.81583 13.0484 4.98193L12.8759 5.10318L12.8376 5.12871C12.3298 5.50046 11.8983 5.96627 11.5666 6.50078L11.4644 6.6667C11.2992 6.95402 11.1643 7.25772 11.062 7.57291C10.991 7.79259 10.9334 8.01636 10.8895 8.24299C10.8373 8.48222 10.8074 8.72576 10.8001 8.9705C10.7814 9.56309 10.9712 10.1435 11.3366 10.6106C11.6177 10.9616 11.9881 11.2169 12.3841 11.4147C12.692 11.566 13.0126 11.6899 13.3422 11.7848C13.7415 11.8948 14.1498 11.9696 14.5622 12.0082L14.7538 12.0273L14.9071 12.0401L15.4181 12.0529H15.7183C16.523 12.0273 17.3406 11.887 18.0879 11.5742L18.3179 11.4658L18.535 11.3573C18.97 11.1242 19.3474 10.7972 19.64 10.4L19.7167 10.2788C19.7352 10.2579 19.7503 10.2342 19.7614 10.2086C19.8492 10.0565 19.922 9.89618 19.9785 9.72993C20.08 9.41468 20.1276 9.08458 20.1191 8.75353ZM19.9211 8.98965C19.9101 9.21997 19.8671 9.44765 19.7933 9.66611C19.7456 9.80306 19.6858 9.93548 19.6145 10.0618L19.5378 10.1958C19.2662 10.5991 18.9 10.9299 18.4712 11.1594C18.4244 11.1908 18.3753 11.2186 18.3242 11.2424L18.2476 11.2807L18.2157 11.2934L18.1773 11.3126L18.1582 11.3254L18.1199 11.3445L18.0688 11.3636H18.056L17.9474 11.4083L17.8452 11.4466H17.826L17.7622 11.4721H17.7175L17.6664 11.4913L17.6153 11.5104L17.5003 11.5487H17.4939L17.3981 11.5742L17.3534 11.587H17.3342L17.264 11.6062L17.1745 11.6253L17.1171 11.6381L17.034 11.6572L16.9702 11.67H16.9638L16.8743 11.6827H16.8552L16.7274 11.7083H16.7211L16.6189 11.721H16.6125L16.5678 11.7338H16.4847L16.3953 11.7466L16.3059 11.7593C15.8603 11.8039 15.412 11.8167 14.9646 11.7976C14.8049 11.7912 14.6516 11.7785 14.4983 11.7593C14.3131 11.7402 14.1278 11.7083 13.949 11.6764C13.598 11.6129 13.2537 11.5168 12.9207 11.3892C12.7801 11.3381 12.646 11.2743 12.4991 11.2105C12.3273 11.1226 12.161 11.0246 12.0009 10.9169C11.5784 10.6308 11.2619 10.2136 11.1003 9.72993C10.9406 9.23215 10.9725 8.70885 11.0811 8.2047C11.1714 7.74374 11.3239 7.29719 11.5346 6.8773C11.7655 6.44028 12.0604 6.04019 12.4097 5.6903C13.1314 4.97555 14.0831 4.5033 15.1051 4.44586C15.8623 4.4255 16.6121 4.59906 17.2831 4.95002L17.5258 5.07766H17.545L17.6344 5.13509L17.7302 5.18614L17.7813 5.21805H17.7877L17.8708 5.27549L17.9346 5.32016L17.9921 5.35845H17.9985L18.0624 5.40312L18.1326 5.45418H18.1518L18.1773 5.4797C18.254 5.53714 18.3242 5.60096 18.3945 5.66477C18.582 5.83724 18.757 6.02278 18.9183 6.21998C19.4676 6.90283 19.8891 7.77074 19.9274 8.66418V8.7982C19.9296 8.86209 19.9274 8.92604 19.9211 8.98965Z" fill="#4040B7"/>
<path d="M12.8763 5.09647L12.838 5.122C12.3302 5.49375 11.8987 5.95956 11.5669 6.49407H11.5414C11.4967 6.42387 11.4583 6.35367 11.42 6.28347C11.3431 6.12948 11.279 5.96939 11.2284 5.80484L11.1518 5.54958C11.1297 5.45697 11.1126 5.36323 11.1007 5.26878C11.0932 5.21804 11.089 5.16689 11.0879 5.11562C11.0879 5.09009 11.0943 5.07095 11.0943 5.04542V5.01351C11.0943 4.99437 11.0943 5.00075 11.1007 4.98798C11.1018 4.96828 11.1061 4.94889 11.1134 4.93055C11.1134 4.91778 11.1198 4.9114 11.1198 4.89864V4.87949C11.1307 4.86608 11.1393 4.851 11.1454 4.83482L11.1645 4.81568L11.1773 4.80291C11.2007 4.77816 11.2289 4.7586 11.2603 4.74548C11.2993 4.73095 11.3402 4.72234 11.3817 4.71995C11.5466 4.7102 11.7121 4.72308 11.8735 4.75824C12.2239 4.81595 12.5626 4.93018 12.8763 5.09647Z" fill="#6678FF"/>
<path d="M12.1151 8.77925C12.9391 8.85584 13.6417 8.67077 13.9866 8.52399C15.1107 8.03898 15.858 6.41164 15.7495 4.50988C15.5354 4.4844 15.3195 4.47799 15.1043 4.49074C14.0824 4.54817 13.1307 5.02042 12.4089 5.73517C12.0597 6.08357 11.7666 6.484 11.5403 6.92217C11.3248 7.34063 11.17 7.78757 11.0804 8.24957C11.0612 8.33892 11.0421 8.42826 11.0293 8.52399C11.3784 8.6564 11.7435 8.74223 12.1151 8.77925Z" fill="#6678FF"/>
<path d="M19.85 5.2694C19.8322 5.40317 19.8044 5.53542 19.7669 5.66507C19.6879 5.94305 19.5719 6.2092 19.422 6.4564H19.3582L19.3134 6.46916C18.9633 5.94498 18.5142 5.49408 17.9913 5.14177L17.9785 5.129C18.4031 4.87527 18.8786 4.71837 19.3709 4.66952C19.4795 4.65675 19.6136 4.63761 19.7222 4.68228C19.8308 4.72695 19.8564 4.80992 19.8691 4.91202C19.8811 5.03143 19.8746 5.15195 19.85 5.2694Z" fill="#6678FF"/>
<path d="M20.0674 5.02757C20.0538 5.33751 19.9913 5.64335 19.8821 5.93377C19.8297 6.08014 19.7678 6.22296 19.6969 6.36135L19.5756 6.56557C19.55 6.60386 19.5245 6.64853 19.467 6.64853H19.3584C19.3375 6.64787 19.3175 6.64044 19.3013 6.62737C19.285 6.61429 19.2735 6.59628 19.2684 6.57607C19.2634 6.55585 19.2651 6.53454 19.2732 6.51537C19.2814 6.4962 19.2956 6.48022 19.3137 6.46984L19.3584 6.45708H19.4223C19.5721 6.20987 19.6881 5.94373 19.7672 5.66574C19.8046 5.53609 19.8324 5.40384 19.8502 5.27008C19.8755 5.15056 19.882 5.02783 19.8694 4.90632C19.8566 4.80421 19.8183 4.71487 19.7225 4.67658C19.6266 4.63828 19.4797 4.65105 19.3712 4.66381C18.8788 4.71267 18.4034 4.86956 17.9787 5.1233C17.9296 5.1493 17.8826 5.17918 17.8382 5.21264C17.8209 5.22282 17.8008 5.22728 17.7807 5.2254C17.7704 5.2242 17.7604 5.22072 17.7516 5.2152C17.7428 5.20968 17.7353 5.20227 17.7296 5.19349C17.7196 5.18361 17.7119 5.17164 17.7071 5.15843C17.7022 5.14523 17.7003 5.13112 17.7015 5.11711C17.7028 5.10309 17.707 5.08952 17.7141 5.07735C17.7212 5.06519 17.7308 5.05473 17.7424 5.04672L17.7935 5.00842C18.077 4.83387 18.3818 4.69659 18.7005 4.59999C18.8493 4.5562 19.0008 4.5221 19.154 4.49789C19.3012 4.46877 19.4511 4.45593 19.6011 4.4596C19.748 4.47236 19.8885 4.51703 19.9779 4.64467C20.0674 4.7723 20.0674 4.89994 20.0674 5.02757Z" fill="#4040B7"/>
<path d="M19.6086 7.20353L19.4872 7.12695L18.0501 7.68216C17.9543 7.72045 17.8457 7.77151 17.8457 7.84809C17.8457 7.92467 17.916 7.95658 18.0054 7.97572C18.0937 7.99289 18.1841 7.99719 18.2736 7.98849C18.5982 7.97763 18.921 7.93704 19.2381 7.86723C19.4744 7.80342 19.698 7.70131 19.8385 7.56091C19.7683 7.43966 19.6852 7.32479 19.6086 7.20353Z" fill="#4040B7"/>
<path d="M19.8826 7.96798L19.8251 7.92969L18.388 8.4849C18.2922 8.52319 18.1836 8.57424 18.1836 8.65082C18.1836 8.7274 18.2602 8.75931 18.3433 8.78484C18.4319 8.79979 18.5223 8.80194 18.6115 8.79122C18.9373 8.77207 19.2694 8.75293 19.576 8.66997C19.7178 8.63234 19.855 8.57882 19.9848 8.51042C19.9637 8.32741 19.9295 8.14614 19.8826 7.96798Z" fill="#4040B7"/>
<path d="M15.3857 9.05979C15.3882 9.04403 15.3948 9.02921 15.4049 9.01686C15.415 9.00452 15.4282 8.9951 15.4432 8.98959C15.4487 8.98572 15.455 8.98313 15.4617 8.98203C15.4683 8.98092 15.4751 8.98133 15.4815 8.98321C15.4998 8.98296 15.5176 8.98925 15.5317 9.00095C15.5457 9.01266 15.5551 9.029 15.5582 9.04703C15.5643 9.05648 15.5665 9.06788 15.5646 9.07894C15.5584 9.14654 15.5692 9.21462 15.5959 9.27702C15.6227 9.33942 15.6646 9.39417 15.7179 9.43631C15.8041 9.50619 15.9138 9.54045 16.0245 9.53204C16.134 9.51799 16.2343 9.46332 16.3055 9.37888C16.3399 9.33624 16.3655 9.28723 16.3809 9.23465C16.3962 9.18208 16.401 9.12698 16.3949 9.07256C16.39 9.01776 16.3738 8.96457 16.3474 8.91627C16.3211 8.86797 16.285 8.82559 16.2416 8.79176C16.2324 8.78422 16.2247 8.77493 16.2191 8.76444C16.2135 8.75394 16.21 8.74244 16.2088 8.73059C16.2076 8.71873 16.2088 8.70676 16.2122 8.69536C16.2156 8.68396 16.2213 8.67334 16.2289 8.66412C16.2364 8.65491 16.2457 8.64726 16.2562 8.64163C16.2667 8.636 16.2782 8.63249 16.2901 8.63131C16.3019 8.63012 16.3139 8.63128 16.3253 8.63473C16.3367 8.63817 16.3474 8.64382 16.3566 8.65136C16.4776 8.75281 16.5553 8.89663 16.5738 9.05341C16.5884 9.21011 16.5402 9.3662 16.4396 9.48737C16.3409 9.60843 16.1989 9.68627 16.0436 9.70434H15.9031C15.7939 9.68766 15.6907 9.64376 15.6029 9.57671C15.5537 9.53394 15.5107 9.48454 15.4752 9.42993C15.4098 9.31793 15.3787 9.18925 15.3857 9.05979Z" fill="#221A7E"/>
<path d="M14.5763 8.68394C14.585 8.67585 14.5953 8.66959 14.6065 8.66553C14.6177 8.66146 14.6296 8.65967 14.6415 8.66027C14.6534 8.66086 14.665 8.66383 14.6758 8.66899C14.6865 8.67415 14.6961 8.6814 14.704 8.69032C14.7116 8.69893 14.7173 8.70901 14.7207 8.71992C14.7242 8.73084 14.7254 8.74235 14.7242 8.75374C14.723 8.76513 14.7194 8.77615 14.7138 8.78611C14.7081 8.79606 14.7004 8.80473 14.6912 8.81158C14.6397 8.85739 14.6 8.91497 14.5755 8.97942C14.551 9.04387 14.5425 9.11327 14.5507 9.18172C14.5569 9.23599 14.5743 9.28839 14.6018 9.33562C14.6293 9.38285 14.6663 9.42388 14.7104 9.45613C14.7527 9.49114 14.8017 9.51713 14.8544 9.53249C14.9072 9.54786 14.9625 9.55228 15.017 9.54547C15.1251 9.53239 15.2237 9.47738 15.2916 9.39231C15.3265 9.34871 15.3524 9.29861 15.3678 9.24493C15.3831 9.19125 15.3876 9.13505 15.381 9.07961V9.05408C15.3844 9.03842 15.3922 9.02406 15.4035 9.01274C15.4149 9.00141 15.4292 8.99361 15.4449 8.99026C15.4449 8.98388 15.4513 8.98388 15.4577 8.98388C15.4795 8.98183 15.5013 8.98785 15.519 9.00079C15.5366 9.01372 15.5489 9.03269 15.5535 9.05408C15.5744 9.18268 15.5471 9.31446 15.4769 9.42422L15.4321 9.49442C15.3331 9.61687 15.1899 9.69554 15.0334 9.71345C14.8769 9.73135 14.7196 9.68707 14.5954 9.59015C14.5282 9.53523 14.4737 9.46639 14.4356 9.38837C14.3976 9.31036 14.377 9.22503 14.3751 9.13827C14.3733 9.05151 14.3903 8.96539 14.4251 8.88585C14.4598 8.80631 14.5114 8.73525 14.5763 8.67756V8.68394Z" fill="#221A7E"/>
<path d="M16.1719 6.71162C16.1718 6.68392 16.1824 6.65725 16.2014 6.63708C16.2204 6.6169 16.2464 6.60476 16.2741 6.60313C16.3035 6.60308 16.3318 6.61431 16.3532 6.63449C16.3746 6.65467 16.3874 6.68227 16.389 6.71162V7.20939C16.3886 7.28124 16.4031 7.3524 16.4317 7.41833C16.4603 7.48426 16.5023 7.54351 16.5551 7.5923C16.6058 7.64128 16.6659 7.67953 16.7317 7.70475C16.7976 7.72998 16.8679 7.74165 16.9383 7.73908C17.0096 7.73912 17.0801 7.72481 17.1457 7.69701C17.2113 7.6692 17.2707 7.62846 17.3201 7.57723C17.3696 7.526 17.4083 7.46532 17.4338 7.39883C17.4592 7.33234 17.4711 7.2614 17.4685 7.19025V6.69247C17.4685 6.6637 17.4799 6.63611 17.5003 6.61576C17.5206 6.59541 17.5483 6.58398 17.5771 6.58398C17.6048 6.58394 17.6315 6.59449 17.6517 6.61347C17.6719 6.63246 17.684 6.65844 17.6856 6.68609V7.19025C17.6873 7.28914 17.6695 7.3874 17.6332 7.47941C17.5969 7.57142 17.5428 7.65538 17.474 7.7265C17.4052 7.79761 17.323 7.85449 17.2322 7.89388C17.1414 7.93326 17.0437 7.95439 16.9447 7.95605H16.8298C16.6687 7.93621 16.5185 7.86453 16.4018 7.75184C16.3296 7.68367 16.272 7.60158 16.2325 7.51054C16.193 7.4195 16.1724 7.32139 16.1719 7.22216V6.71162Z" fill="#221A7E"/>
<path d="M13.1895 6.75654C13.1895 6.72777 13.2009 6.70017 13.2213 6.67983C13.2416 6.65948 13.2692 6.64805 13.298 6.64805C13.3268 6.64805 13.3545 6.65948 13.3748 6.67983C13.3952 6.70017 13.4066 6.72777 13.4066 6.75654V7.25431C13.4089 7.32536 13.4254 7.39524 13.455 7.45988C13.4846 7.52453 13.5268 7.58264 13.5791 7.63084C13.6564 7.70291 13.753 7.75087 13.8572 7.76884C13.9614 7.7868 14.0685 7.77399 14.1655 7.73198C14.2625 7.68996 14.3451 7.62057 14.4032 7.53232C14.4612 7.44407 14.4923 7.34079 14.4924 7.23517L14.4797 6.7374C14.4812 6.70912 14.4931 6.68241 14.5132 6.66238C14.5332 6.64236 14.56 6.63044 14.5883 6.62891C14.616 6.62886 14.6427 6.63941 14.6629 6.65839C14.6831 6.67738 14.6952 6.70336 14.6968 6.73101L14.7096 7.23517C14.7091 7.43327 14.6312 7.62335 14.4924 7.76485C14.3568 7.90627 14.171 7.98877 13.9751 7.99459H13.8473C13.6914 7.97433 13.546 7.90504 13.4322 7.79676C13.3588 7.72878 13.2996 7.64699 13.258 7.5561C13.2163 7.4652 13.193 7.36698 13.1895 7.26708V6.75654Z" fill="#221A7E"/>
<path d="M15.0809 8.12275C15.1471 8.10559 15.2169 8.10925 15.281 8.13324C15.345 8.15722 15.4 8.20036 15.4386 8.25676C15.4386 8.26015 15.4399 8.2634 15.4423 8.26579C15.4447 8.26818 15.448 8.26953 15.4514 8.26953C15.4642 8.27673 15.4792 8.27876 15.4935 8.2752C15.5078 8.27164 15.5201 8.26276 15.528 8.25038C15.5648 8.193 15.6179 8.14782 15.6804 8.12056C15.7429 8.0933 15.8122 8.08517 15.8793 8.09722C15.9609 8.12103 16.0299 8.17572 16.0716 8.24963C16.1134 8.32354 16.1246 8.41083 16.1029 8.49289C16.0645 8.63967 15.7643 8.95875 15.5599 9.0481H15.5536L15.4769 9.06086C15.447 9.06479 15.4166 9.06262 15.3875 9.05448H15.3811C15.1831 8.98428 14.8765 8.67158 14.8446 8.5248C14.8279 8.4405 14.8427 8.353 14.8863 8.2789C14.9298 8.2048 14.9991 8.14924 15.0809 8.12275Z" fill="#221A7E"/>
</g>
<path d="M7.92381 7.6543H0.965079C0.432081 7.6543 0 8.0926 0 8.63328V11.742C0 12.2827 0.432081 12.721 0.965079 12.721H7.92381C8.45681 12.721 8.88889 12.2827 8.88889 11.742V8.63328C8.88889 8.0926 8.45681 7.6543 7.92381 7.6543Z" fill="#6678FF"/>
<path d="M28.8992 7.63821C28.8992 8.07975 28.3322 8.42966 27.6234 8.42966C26.9147 8.42966 26.3477 8.07975 26.3477 7.63821C26.3477 7.34662 26.6061 7.09669 26.9814 6.95506C27.0117 6.80646 27.0918 6.67265 27.2086 6.57571C27.3253 6.47877 27.4716 6.4245 27.6234 6.42188C27.7756 6.42296 27.9227 6.47667 28.0398 6.57387C28.1568 6.67107 28.2366 6.80576 28.2655 6.95506C28.649 7.09669 28.8992 7.34662 28.8992 7.63821Z" fill="white"/>
<path d="M26.4473 6.9889C26.3365 7.03757 26.211 7.04132 26.0975 6.99936C25.9839 6.95739 25.8911 6.87299 25.8386 6.76396C25.8154 6.70929 25.8032 6.65056 25.8027 6.59116C25.8023 6.53176 25.8137 6.47286 25.8362 6.41787C25.8586 6.36288 25.8918 6.31288 25.9337 6.27075C25.9757 6.22863 26.0255 6.19522 26.0804 6.17246C26.19 6.121 26.3154 6.11489 26.4294 6.15547C26.5435 6.19604 26.6368 6.28001 26.6891 6.38906C26.7364 6.50067 26.7375 6.62645 26.6922 6.73887C26.6469 6.85129 26.5588 6.94119 26.4473 6.9889Z" fill="white"/>
<path d="M29.2325 6.9889C29.1216 7.03757 28.9962 7.04132 28.8826 6.99936C28.769 6.95739 28.6762 6.87299 28.6238 6.76396C28.6005 6.70929 28.5883 6.65056 28.5879 6.59116C28.5875 6.53176 28.5988 6.47286 28.6213 6.41787C28.6438 6.36288 28.677 6.31288 28.7189 6.27075C28.7608 6.22863 28.8107 6.19522 28.8656 6.17246C28.9751 6.121 29.1006 6.11489 29.2146 6.15547C29.3286 6.19604 29.422 6.28001 29.4743 6.38906C29.5216 6.50067 29.5227 6.62645 29.4773 6.73887C29.432 6.85129 29.344 6.94119 29.2325 6.9889Z" fill="white"/>
<path d="M28.3811 6.21351C28.3266 6.2451 28.266 6.26489 28.2033 6.2716C28.1406 6.27831 28.0772 6.2718 28.0172 6.25248C27.9572 6.23316 27.902 6.20146 27.855 6.15944C27.808 6.11742 27.7704 6.06602 27.7446 6.00855C27.7188 5.95109 27.7053 5.88884 27.7051 5.82585C27.7049 5.76286 27.7179 5.70053 27.7433 5.64289C27.7687 5.58524 27.806 5.53358 27.8527 5.49123C27.8993 5.44888 27.9544 5.4168 28.0143 5.39707C28.1238 5.34561 28.2492 5.3395 28.3633 5.38008C28.4773 5.42065 28.5706 5.50462 28.6229 5.61367C28.6702 5.72528 28.6713 5.85106 28.626 5.96348C28.5807 6.0759 28.4926 6.1658 28.3811 6.21351Z" fill="white"/>
<path d="M27.2229 6.21398C27.1684 6.24557 27.1078 6.26536 27.0451 6.27207C26.9824 6.27879 26.919 6.27227 26.859 6.25295C26.799 6.23363 26.7437 6.20193 26.6968 6.15992C26.6498 6.1179 26.6122 6.06649 26.5864 6.00902C26.5606 5.95156 26.5471 5.88932 26.5469 5.82633C26.5467 5.76334 26.5597 5.701 26.5851 5.64336C26.6105 5.58571 26.6478 5.53405 26.6945 5.4917C26.7411 5.44936 26.7962 5.41728 26.856 5.39754C26.9095 5.37106 26.9677 5.35567 27.0273 5.35228C27.0868 5.34889 27.1464 5.35757 27.2025 5.37781C27.2586 5.39805 27.31 5.42942 27.3536 5.47004C27.3973 5.51065 27.4322 5.55967 27.4564 5.61415C27.4812 5.66874 27.4948 5.72775 27.4965 5.78769C27.4982 5.84763 27.4878 5.90729 27.4661 5.96317C27.4443 6.01906 27.4116 6.07004 27.3698 6.11311C27.3281 6.15618 27.2781 6.19047 27.2229 6.21398Z" fill="white"/>
<path d="M7.53136 8.45508H1.359C1.14887 8.45508 0.978516 8.63416 0.978516 8.85508C0.978516 9.07599 1.14887 9.25508 1.359 9.25508H7.53136C7.7415 9.25508 7.91185 9.07599 7.91185 8.85508C7.91185 8.63416 7.7415 8.45508 7.53136 8.45508Z" fill="white"/>
<path d="M7.53136 9.78906H1.359C1.14887 9.78906 0.978516 9.96815 0.978516 10.1891C0.978516 10.41 1.14887 10.5891 1.359 10.5891H7.53136C7.7415 10.5891 7.91185 10.41 7.91185 10.1891C7.91185 9.96815 7.7415 9.78906 7.53136 9.78906Z" fill="white"/>
<path d="M4.33003 11.1211H1.36033C1.14946 11.1211 0.978516 11.2803 0.978516 11.4766C0.978516 11.673 1.14946 11.8322 1.36033 11.8322H4.33003C4.5409 11.8322 4.71185 11.673 4.71185 11.4766C4.71185 11.2803 4.5409 11.1211 4.33003 11.1211Z" fill="white"/>
</svg>
