<svg width="512" height="512" viewBox="0 0 512 512" fill="none" xmlns="http://www.w3.org/2000/svg">
<rect width="512" height="512" rx="256" fill="url(#paint0_linear_240_37)"/>
<path d="M147.949 197.17C142.764 195.542 139.622 182.178 156.162 177.287C172.702 172.395 186.493 191.546 188.482 196.099C190.47 200.651 186.527 204.246 184.362 203.812C180.86 203.106 175.892 199.009 165.894 197.265C155.897 195.522 153.685 198.975 147.949 197.17Z" fill="#F7EAEA"/>
<path d="M298.269 196.818C303.556 195.563 307.642 182.456 291.496 176.398C275.343 170.347 260.221 188.467 257.92 192.863C255.619 197.259 259.284 201.132 261.483 200.854C265.026 200.4 270.273 196.669 280.372 195.637C290.471 194.606 292.432 198.208 298.276 196.818H298.269Z" fill="#F7EAEA"/>
<path d="M195.852 136.461C195.852 136.461 144.929 83.0374 120.421 96.3339C95.9128 109.63 111.509 192.517 111.509 192.517C133.52 138.042 195.852 136.461 195.852 136.461Z" fill="#F7EAEA"/>
<path d="M209.263 280.084C199.103 279.677 182.19 280.348 182.59 291.698C182.99 303.048 194.739 311.5 208.211 312.029C221.683 312.559 239.771 299.886 239.513 291.963C239.255 284.039 222.342 280.613 209.27 280.084H209.263Z" fill="#F7EAEA"/>
<path d="M70.9971 372.908C70.9971 390.438 98.5865 403.111 169.837 391.49C169.837 391.49 117.482 369.313 105.862 339.742C105.862 339.742 70.9971 355.379 70.9971 372.902V372.908Z" fill="#F7EAEA"/>
<path d="M178.409 217.733C150.005 197.53 123.25 227.963 115.71 256.659C108.991 272.113 90.8013 269.786 86.0504 269.786C80.9261 299.025 105.862 339.749 105.862 339.749C99.4684 310.483 128.761 299.235 141.922 295.707C142.03 295.687 142.132 295.673 142.241 295.653C144.243 295.266 146.163 294.825 148.016 294.344C148.03 294.344 148.043 294.344 148.043 294.344C201.777 280.335 193.361 228.383 178.402 217.753L178.409 217.733Z" fill="#F7EAEA"/>
<path d="M347.442 245.302C330.99 216.063 297.801 192.869 262.923 214.082C241.19 227.298 228.852 291.263 304.86 309.756C304.86 309.756 378.968 328.032 340.234 344.436C309.523 352.4 259.054 366.633 259.054 393.606C259.054 425.287 321.386 417.892 366.819 414.724C412.252 411.556 442.888 364.035 434.432 340.807C429.939 328.453 417.274 326.553 401.216 328.907L436.99 269.012C436.99 269.012 370.857 278.638 347.442 245.309V245.302Z" fill="#F7EAEA"/>
<path d="M426.063 212.848C426.063 212.848 442.379 161.718 440.512 129.012C439.942 118.986 431.194 111.374 421.169 112.073C402.559 113.362 370.572 120.288 342.012 149.703C342.012 149.703 354.473 193.799 426.056 212.848H426.063Z" fill="#F7EAEA"/>
<path d="M322.187 267.635C318.963 267.418 316.269 264.921 315.909 261.597C315.909 261.591 315.352 257.147 312.882 252.812C309.977 247.704 305.803 245.038 300.129 244.651C285.218 243.64 281.451 256.611 281.071 258.097C280.195 261.74 276.537 263.965 272.899 263.09C269.255 262.221 267.008 258.531 267.884 254.888C270.001 246.035 279.659 229.672 301.045 231.117C321.128 232.474 328.377 250.696 329.401 260.139C329.809 263.863 327.114 267.208 323.388 267.615C322.981 267.655 322.58 267.669 322.187 267.642V267.635Z" fill="#E44D3A"/>
<path d="M141.521 256.652C141.521 256.652 145.268 238.831 157.098 238.125C170.027 237.352 172.783 256.74 172.783 256.74" stroke="#E44D3A" stroke-width="10.24" stroke-linecap="round" stroke-linejoin="round"/>
<defs>
<linearGradient id="paint0_linear_240_37" x1="481.37" y1="39.7506" x2="4.24942e-05" y2="512" gradientUnits="userSpaceOnUse">
<stop stop-color="#FF9D43"/>
<stop offset="1" stop-color="#C90030"/>
</linearGradient>
</defs>
</svg>
