<svg width="512" height="521" viewBox="0 0 512 521" fill="none" xmlns="http://www.w3.org/2000/svg">
<path d="M0 260.499C0 117.376 117.398 2.06364 260.499 4.57909V4.57909C400.087 7.03278 512 120.891 512 260.501V260.501C512 403.624 394.602 518.936 251.501 516.421V516.421C111.913 513.967 0 400.109 0 260.499V260.499Z" fill="url(#paint0_linear_30_1477)"/>
<path d="M117.956 391.321L116.984 390.015C109.514 379.975 104.583 368.032 102.342 354.558C99.8397 339.517 99.8397 323.804 102.342 307.829C104.693 292.841 109.026 278.232 115.229 264.385L114.631 263.564V263.414C106.078 249.045 99.653 226.166 97.4492 202.204C96.5901 193.135 94.6477 162.903 104.92 155.102C108.207 152.602 113.212 151.37 120.159 151.37C146.007 151.37 193.632 169.024 205.771 173.727C214.395 170.295 223.36 167.792 232.515 166.262C239.182 165.15 245.927 164.576 252.686 164.545C256.272 161.559 269.868 150.213 285.481 139.053C310.171 121.325 328.175 112.292 338.933 112.292C340.592 112.297 342.241 112.549 343.826 113.039C356.04 117.144 363.959 146.369 366.05 155.214C371.504 177.795 372.886 200.711 369.86 216.984C394.139 241.804 410.276 272.372 415.356 303.201C418.418 321.564 415.879 338.584 407.848 353.812C400.527 367.733 388.611 380.162 372.438 390.799L371.616 391.321H117.956Z" fill="#5959FF"/>
<path d="M338.933 115.577C340.25 115.54 341.564 115.729 342.817 116.137C357.758 121.138 373.67 183.468 366.349 218.067C389.881 241.73 406.839 271.738 412.143 303.761C418.232 340.562 400.751 368.33 370.607 388.112H119.562C112.614 378.744 107.758 367.472 105.555 354.036C100.587 323.99 106.04 292.303 119.039 263.788C118.409 263.191 117.846 262.527 117.358 261.81C99.2795 231.354 94.2743 167.232 106.787 157.715C109.663 155.513 114.295 154.617 120.085 154.617C146.194 154.617 195.275 173.129 205.697 177.198C220.825 170.919 237.052 167.71 253.433 167.755H253.806C253.806 167.755 314.691 115.54 338.895 115.54L338.933 115.577ZM338.895 109.083C327.316 109.083 309.2 118.003 283.502 136.403C268.673 147.003 256.01 157.454 251.416 161.298C235.751 161.496 220.25 164.518 205.659 170.218C198.861 167.606 185.564 162.716 170.66 158.163C148.809 151.519 131.813 148.123 120.085 148.123C112.39 148.123 106.75 149.578 102.865 152.527C98.3457 155.998 95.5069 162.604 94.1622 172.868C93.1163 181.117 93.079 191.343 94.1249 202.503C96.366 226.688 102.865 249.904 111.531 264.721C105.62 278.351 101.454 292.672 99.1301 307.344C96.5901 323.654 96.5901 339.741 99.1301 355.118C101.446 369.077 106.563 381.506 114.37 391.956L116.312 394.569H372.587L374.193 393.486C390.852 382.588 403.141 369.711 410.724 355.342C419.091 339.479 421.705 321.751 418.568 302.716C415.878 286.331 410.201 270.17 401.834 254.681C394.12 240.546 384.533 227.515 373.334 215.939C376.061 199.368 374.567 176.713 369.225 154.468C366.611 143.607 363.286 133.903 359.626 126.438C355.069 117.145 350.25 111.77 344.872 109.978C342.952 109.369 340.947 109.066 338.933 109.083H338.895Z" fill="black"/>
<path d="M283.203 360.045C279.929 360.038 276.721 359.12 273.939 357.395C271.454 355.87 269.381 353.759 267.903 351.247C266.425 348.735 265.586 345.899 265.46 342.988C265.505 342.337 265.788 341.726 266.255 341.271C266.723 340.816 267.342 340.549 267.994 340.521C268.645 340.494 269.285 340.707 269.789 341.121C270.293 341.534 270.627 342.119 270.727 342.764C270.815 344.816 271.406 346.814 272.448 348.584C273.49 350.355 274.952 351.842 276.704 352.916C278.106 353.782 279.668 354.361 281.297 354.617C282.926 354.874 284.59 354.803 286.191 354.409C287.792 354.036 289.302 353.345 290.631 352.376C291.959 351.408 293.079 350.183 293.923 348.773C294.789 347.375 295.371 345.82 295.633 344.197C295.895 342.574 295.834 340.915 295.452 339.315C295.07 337.716 294.375 336.208 293.408 334.878C292.44 333.549 291.219 332.423 289.814 331.567C289.515 331.39 289.254 331.156 289.046 330.877C288.839 330.599 288.689 330.282 288.606 329.945C288.522 329.608 288.507 329.257 288.56 328.914C288.614 328.571 288.735 328.242 288.918 327.946C289.101 327.649 289.341 327.391 289.625 327.187C289.908 326.983 290.229 326.837 290.569 326.757C290.91 326.677 291.262 326.665 291.607 326.722C291.952 326.779 292.282 326.903 292.578 327.088C295.576 328.93 297.961 331.619 299.432 334.814C300.902 338.009 301.393 341.568 300.842 345.042C300.29 348.515 298.721 351.748 296.334 354.332C293.946 356.915 290.845 358.734 287.424 359.559C286.038 359.868 284.623 360.031 283.203 360.045V360.045Z" fill="black"/>
<path d="M253.134 364.523C249.937 364.533 246.798 363.668 244.058 362.023C241.792 360.689 239.851 358.869 238.376 356.694C236.901 354.519 235.928 352.044 235.527 349.447C235.127 346.85 235.309 344.197 236.061 341.679C236.813 339.161 238.115 336.842 239.874 334.889C240.105 334.631 240.384 334.422 240.695 334.272C241.007 334.123 241.345 334.036 241.69 334.017C242.035 333.998 242.381 334.047 242.707 334.161C243.033 334.276 243.333 334.453 243.591 334.683C243.848 334.914 244.058 335.193 244.208 335.504C244.357 335.815 244.444 336.153 244.463 336.498C244.482 336.843 244.433 337.188 244.319 337.514C244.204 337.84 244.027 338.14 243.796 338.397C242.436 339.93 241.47 341.772 240.982 343.761C240.494 345.751 240.499 347.83 240.995 349.818C241.609 352.218 242.921 354.382 244.764 356.037C246.608 357.693 248.9 358.766 251.353 359.121C253.806 359.477 256.31 359.098 258.548 358.034C260.786 356.969 262.658 355.266 263.929 353.14C264.779 351.731 265.337 350.165 265.568 348.537C265.799 346.908 265.699 345.249 265.274 343.66C265.114 342.982 265.223 342.269 265.578 341.671C265.933 341.072 266.507 340.634 267.179 340.45C267.515 340.36 267.865 340.339 268.21 340.387C268.554 340.434 268.886 340.55 269.185 340.727C269.484 340.905 269.745 341.14 269.952 341.419C270.159 341.698 270.308 342.016 270.391 342.353C270.98 344.615 271.112 346.972 270.778 349.286C270.445 351.599 269.653 353.823 268.449 355.827C266.889 358.496 264.651 360.706 261.962 362.233C259.273 363.761 256.227 364.551 253.134 364.523V364.523Z" fill="black"/>
<path d="M302.253 306.822C296.819 306.793 291.575 304.826 287.465 301.274C283.356 297.722 280.652 292.819 279.841 287.451L277.637 272.633C277.568 272.214 277.583 271.785 277.681 271.372C277.78 270.958 277.959 270.568 278.209 270.224C278.459 269.88 278.775 269.59 279.139 269.369C279.502 269.148 279.906 269.002 280.327 268.938C281.179 268.81 282.047 269.025 282.74 269.536C283.434 270.047 283.896 270.812 284.025 271.663L286.228 286.518C286.978 290.674 289.319 294.374 292.755 296.834C296.19 299.294 300.45 300.319 304.629 299.693C308.809 299.066 312.579 296.837 315.141 293.479C317.703 290.12 318.855 285.896 318.352 281.703L316.148 266.886C316.084 266.467 316.103 266.039 316.205 265.627C316.307 265.216 316.488 264.828 316.74 264.487C316.991 264.146 317.307 263.857 317.671 263.638C318.034 263.419 318.436 263.273 318.856 263.209C319.275 263.146 319.703 263.165 320.115 263.267C320.527 263.368 320.915 263.55 321.256 263.801C321.598 264.052 321.887 264.368 322.106 264.731C322.325 265.094 322.471 265.496 322.535 265.915L324.776 280.733C325.665 286.691 324.149 292.758 320.563 297.601C316.977 302.444 311.614 305.667 305.652 306.56C304.526 306.722 303.39 306.809 302.253 306.822V306.822Z" fill="black"/>
<path d="M210.926 175.182C210.926 175.182 222.468 181.303 221.758 195.747C221.049 210.826 211.113 209.706 212.981 226.39C214.848 243.073 258.849 274.835 237.409 323.281C216.305 371.055 121.056 358.514 103.949 339.741C99.8401 289.205 132.262 239.789 132.262 239.789C132.262 239.789 171.781 184.401 210.926 175.182Z" fill="#6678FF"/>
<path d="M215.632 317.123C210.248 317.121 205.041 315.205 200.941 311.717C196.842 308.23 194.118 303.398 193.258 298.088V298.088L191.017 283.27C190.942 282.844 190.954 282.407 191.05 281.986C191.147 281.564 191.327 281.166 191.58 280.815C191.833 280.463 192.154 280.166 192.524 279.941C192.893 279.715 193.304 279.565 193.732 279.501C194.16 279.436 194.597 279.458 195.017 279.564C195.437 279.67 195.831 279.86 196.176 280.12C196.522 280.381 196.812 280.708 197.029 281.083C197.246 281.457 197.387 281.871 197.441 282.3L199.645 297.117C200.41 301.256 202.752 304.936 206.179 307.382C209.606 309.828 213.85 310.848 218.016 310.229C222.181 309.609 225.943 307.398 228.509 304.061C231.074 300.724 232.243 296.521 231.768 292.34L229.564 277.523C229.496 277.105 229.511 276.679 229.609 276.267C229.708 275.856 229.888 275.469 230.138 275.128C230.389 274.787 230.705 274.5 231.068 274.283C231.432 274.066 231.835 273.924 232.254 273.865C232.676 273.796 233.108 273.813 233.524 273.913C233.94 274.013 234.332 274.196 234.677 274.45C235.021 274.703 235.311 275.024 235.53 275.391C235.749 275.758 235.893 276.166 235.952 276.59L238.193 291.444C238.98 297.301 237.449 303.233 233.926 307.98C230.404 312.727 225.167 315.913 219.33 316.861C218.106 317.041 216.869 317.128 215.632 317.123V317.123Z" fill="black"/>
<path d="M171.93 202.428C171.93 202.428 157.661 182.684 142.608 172.346C127.555 162.007 116.088 157.006 109.775 160.029C101.819 163.911 101.371 188.469 105.966 213.663C110.56 238.856 117.657 250.687 120.869 257.219C124.081 263.75 171.93 202.428 171.93 202.428Z" fill="#6678FF"/>
<path opacity="0.2" d="M327.391 184.662C324.506 194.401 317.933 202.632 309.07 207.604C300.207 212.576 289.752 213.897 279.929 211.287C270.106 208.676 261.69 202.34 256.47 193.625C251.249 184.91 249.637 174.504 251.976 164.62V164.62C251.976 164.62 267.477 150.138 321.788 118.824C375.799 89.0774 371.579 214.185 371.579 214.185L327.391 184.662Z" fill="black"/>
<path d="M299.077 173.764C299.077 173.764 304.045 156.147 314.84 141.404C325.635 126.662 334.712 118.077 341.696 118.861C350.474 119.869 359.065 142.897 363.099 168.165C367.133 193.433 364.444 206.981 363.548 214.185C358.804 206.347 299.077 173.764 299.077 173.764Z" fill="#6678FF"/>
<path d="M374.081 394.569H115.117L114.108 393.225C106.488 382.924 101.446 370.756 99.1673 357.021C94.3862 327.984 98.6443 296.744 111.568 266.699C123.969 237.848 143.953 211.871 167.858 193.471C168.202 193.206 168.594 193.011 169.012 192.898C169.431 192.785 169.868 192.755 170.298 192.811C170.728 192.866 171.143 193.006 171.519 193.221C171.895 193.437 172.225 193.725 172.49 194.068C172.755 194.411 172.95 194.803 173.063 195.221C173.176 195.639 173.206 196.076 173.15 196.505C173.095 196.935 172.955 197.35 172.739 197.726C172.524 198.101 172.236 198.431 171.892 198.696C123.745 235.758 96.5153 300.439 105.704 355.939C107.721 368.032 112.017 378.781 118.478 387.925H372.101C404.187 366.539 417.709 338.882 412.218 305.702C402.73 248.485 355.106 195.374 296.351 176.563C295.578 176.246 294.954 175.649 294.601 174.893C294.249 174.136 294.194 173.275 294.448 172.48C294.703 171.685 295.247 171.015 295.973 170.603C296.699 170.19 297.554 170.067 298.368 170.255C327.465 179.586 355.367 197.8 376.995 221.575C387.667 233.261 396.736 246.314 403.963 260.391C411.133 274.289 416.122 289.206 418.755 304.619C421.855 323.318 419.24 340.711 411.06 356.275C403.589 370.458 391.413 383.148 374.903 394.009L374.081 394.569Z" fill="black"/>
<path d="M120.981 400.652C119.462 400.657 117.958 400.363 116.553 399.785C115.148 399.208 113.871 398.359 112.796 397.288C111.72 396.216 110.867 394.943 110.284 393.541C109.702 392.14 109.402 390.637 109.402 389.119C109.396 388.031 109.559 386.948 109.888 385.91C112.465 377.064 118.329 369.861 126.846 365.195C134.54 360.903 144.439 358.626 155.383 358.626C166.327 358.626 176.226 360.903 183.957 365.158C192.474 369.898 198.338 377.064 200.915 385.91C201.758 388.854 201.397 392.013 199.913 394.692C198.428 397.372 195.941 399.354 192.997 400.204C191.952 400.502 190.871 400.653 189.784 400.652H120.981Z" fill="#5959FF"/>
<path d="M155.383 361.911C175.74 361.911 192.847 369.898 197.815 386.843C198.415 388.961 198.15 391.23 197.079 393.154C196.008 395.078 194.218 396.499 192.1 397.107C191.349 397.331 190.569 397.444 189.784 397.443H120.981C118.772 397.443 116.653 396.566 115.091 395.005C113.529 393.444 112.652 391.327 112.652 389.12C112.654 388.348 112.767 387.582 112.988 386.843C117.918 369.898 135.026 361.911 155.383 361.911ZM155.383 355.417C130.357 355.417 112.166 366.464 106.75 385.014C105.665 388.785 106.121 392.833 108.019 396.268C109.917 399.704 113.101 402.247 116.873 403.34C118.21 403.711 119.593 403.9 120.981 403.9H189.784C191.73 403.905 193.657 403.526 195.456 402.785C197.255 402.045 198.89 400.957 200.268 399.584C201.645 398.211 202.738 396.58 203.484 394.784C204.229 392.989 204.613 391.064 204.613 389.12C204.619 387.729 204.418 386.345 204.016 385.014C198.637 366.464 180.446 355.417 155.383 355.417Z" fill="black"/>
<path d="M171.407 386.32C171.407 386.32 173.685 391.62 172.901 396.136Z" fill="#5959FF"/>
<path d="M172.901 399.383H172.378C171.532 399.237 170.779 398.763 170.282 398.063C169.785 397.364 169.585 396.497 169.726 395.651C170.212 392.74 168.942 388.858 168.419 387.626C168.123 386.842 168.142 385.974 168.472 385.204C168.802 384.434 169.417 383.821 170.189 383.493C170.96 383.165 171.829 383.148 172.613 383.445C173.397 383.743 174.035 384.332 174.395 385.088C174.657 385.723 177.01 391.396 176.113 396.696C175.981 397.451 175.586 398.134 174.998 398.626C174.411 399.118 173.668 399.386 172.901 399.383V399.383Z" fill="black"/>
<path d="M143.542 386.32C143.542 386.32 140.106 393.076 141.151 397.443Z" fill="#5959FF"/>
<path d="M141.151 400.653C140.425 400.662 139.718 400.423 139.147 399.975C138.576 399.527 138.176 398.896 138.014 398.189C136.706 392.852 140.255 385.649 140.666 384.865C141.052 384.103 141.726 383.525 142.538 383.259C143.351 382.993 144.236 383.06 144.999 383.446C145.761 383.833 146.34 384.506 146.606 385.318C146.872 386.129 146.804 387.014 146.418 387.776C145.223 390.165 143.766 394.494 144.289 396.659C144.394 397.073 144.416 397.504 144.352 397.927C144.289 398.35 144.141 398.756 143.919 399.121C143.696 399.486 143.403 399.803 143.056 400.053C142.709 400.303 142.315 400.482 141.898 400.578C141.654 400.64 141.403 400.665 141.151 400.653V400.653Z" fill="black"/>
<path d="M299.992 251.769C308.579 250.973 315.111 245.719 314.583 240.033C314.055 234.348 306.667 230.384 298.081 231.18C289.495 231.976 282.962 237.23 283.49 242.915C284.018 248.601 291.406 252.565 299.992 251.769Z" fill="#6678FF"/>
<path d="M206.811 265.688C215.347 264.223 221.48 258.453 220.509 252.801C219.538 247.148 211.83 243.753 203.293 245.218C194.756 246.682 188.623 252.452 189.595 258.105C190.566 263.758 198.274 267.153 206.811 265.688Z" fill="#5959FF"/>
<path opacity="0.2" d="M383.457 233.929C383.457 233.929 374.717 249.008 366.387 255.092C358.057 261.175 342.631 262.556 342.407 268.528C342.183 274.5 369.151 285.585 399.481 257.928L383.457 233.929Z" fill="black"/>
<path opacity="0.2" d="M400.975 260.168C400.975 260.168 389.62 273.417 380.319 277.859C371.018 282.3 355.592 280.845 354.284 286.667C352.977 292.49 377.443 308.315 412.33 286.704L400.975 260.168Z" fill="black"/>
<path d="M266.319 318.429C266.226 318.681 266.068 318.904 265.862 319.076C265.655 319.248 265.407 319.362 265.142 319.407C264.877 319.453 264.604 319.428 264.352 319.335C264.1 319.241 263.877 319.084 263.705 318.877C260.978 315.779 256.272 314.622 252.536 316.264C247.83 318.317 245.439 324.102 247.232 329.253C249.025 334.403 263.107 344.481 268.075 342.913C273.454 342.167 283.8 328.506 284.323 323.281C284.846 318.056 281.223 312.943 276.218 312.457C272.258 312.047 268.15 314.622 266.319 318.429Z" fill="black"/>
<path opacity="0.1" d="M367.955 218.552C368.105 218.925 406.018 302.081 367.806 353.998C355.891 370.196 336.542 381.169 315.513 388.559H372.214C402.32 368.778 419.838 341.047 413.75 304.246C408.445 272.223 391.487 242.177 367.955 218.552Z" fill="black"/>
<path d="M330.416 400.652C328.899 400.657 327.396 400.362 325.994 399.784C324.591 399.207 323.317 398.357 322.244 397.285C321.171 396.213 320.321 394.94 319.743 393.539C319.165 392.137 318.87 390.635 318.875 389.119C318.874 388.034 319.025 386.954 319.323 385.91C321.9 377.064 327.764 369.861 336.281 365.195C343.975 360.903 353.874 358.626 364.855 358.626C375.837 358.626 385.698 360.903 393.393 365.158C401.909 369.898 407.773 377.064 410.351 385.91C410.773 387.365 410.905 388.89 410.738 390.397C410.57 391.903 410.108 393.362 409.376 394.689C408.644 396.017 407.657 397.188 406.472 398.134C405.287 399.08 403.927 399.784 402.469 400.204C401.425 400.502 400.343 400.653 399.257 400.652H330.416Z" fill="#5959FF"/>
<path d="M364.855 361.911C385.212 361.911 402.32 369.898 407.25 386.843C407.552 387.892 407.644 388.99 407.52 390.074C407.396 391.159 407.058 392.208 406.527 393.161C405.996 394.115 405.282 394.955 404.425 395.632C403.569 396.309 402.586 396.81 401.535 397.107C400.796 397.33 400.029 397.443 399.257 397.443H330.416C328.21 397.433 326.097 396.553 324.537 394.994C322.977 393.435 322.097 391.324 322.087 389.12C322.089 388.348 322.202 387.582 322.423 386.843C327.353 369.898 344.461 361.911 364.818 361.911H364.855ZM364.818 355.417C339.792 355.417 321.601 366.464 316.185 385.014C315.11 388.785 315.571 392.828 317.467 396.261C319.364 399.694 322.541 402.239 326.308 403.34C327.646 403.711 329.028 403.9 330.416 403.9H399.257C403.18 403.9 406.942 402.342 409.716 399.571C412.49 396.799 414.048 393.039 414.048 389.12C414.048 387.732 413.86 386.351 413.488 385.014C408.072 366.464 389.881 355.417 364.855 355.417H364.818Z" fill="black"/>
<path d="M380.842 386.32C380.842 386.32 383.12 391.62 382.336 396.136Z" fill="#5959FF"/>
<path d="M382.336 399.383H381.776C380.93 399.237 380.176 398.763 379.679 398.063C379.183 397.364 378.983 396.497 379.124 395.651C379.646 392.74 378.376 388.858 377.854 387.626C377.558 386.842 377.577 385.974 377.907 385.204C378.237 384.434 378.852 383.821 379.623 383.493C380.395 383.165 381.264 383.148 382.048 383.445C382.832 383.743 383.47 384.332 383.83 385.088C384.091 385.723 386.445 391.396 385.548 396.733C385.401 397.478 385.001 398.149 384.416 398.632C383.83 399.115 383.095 399.38 382.336 399.383V399.383Z" fill="black"/>
<path d="M352.977 386.32C352.977 386.32 349.541 393.076 350.587 397.442Z" fill="#5959FF"/>
<path d="M350.586 400.652C349.86 400.662 349.153 400.423 348.582 399.975C348.011 399.526 347.611 398.896 347.449 398.189C346.142 392.852 349.69 385.648 350.101 384.865C350.291 384.486 350.554 384.149 350.875 383.873C351.196 383.596 351.569 383.386 351.972 383.254C352.375 383.122 352.799 383.071 353.222 383.104C353.645 383.137 354.056 383.254 354.434 383.446C354.816 383.633 355.157 383.893 355.437 384.213C355.718 384.532 355.932 384.904 356.067 385.307C356.203 385.71 356.257 386.135 356.227 386.559C356.196 386.983 356.082 387.396 355.89 387.776V387.776C354.658 390.164 353.238 394.494 353.761 396.659C353.964 397.495 353.826 398.378 353.378 399.113C352.929 399.847 352.208 400.374 351.371 400.578C351.114 400.639 350.85 400.664 350.586 400.652V400.652Z" fill="black"/>
<defs>
<linearGradient id="paint0_linear_30_1477" x1="512" y1="0" x2="0" y2="512" gradientUnits="userSpaceOnUse">
<stop stop-color="#929EFF"/>
<stop offset="1" stop-color="white"/>
</linearGradient>
</defs>
</svg>
