<svg width="512" height="512" viewBox="0 0 512 512" fill="none" xmlns="http://www.w3.org/2000/svg">
<g clip-path="url(#clip0_96_1132)">
<path d="M512 256C512 397.386 397.385 512.001 256 512.001C114.615 512.001 0 397.386 0 256C0 114.615 114.615 0 256 0C397.385 0 512 114.615 512 256Z" fill="#400000"/>
<path d="M512 256C512 397.386 397.385 512.001 256 512.001C114.615 512.001 0 397.386 0 256C0 114.615 114.615 0 256 0C397.385 0 512 114.615 512 256Z" fill="#400000"/>
<path d="M512 256C512 397.385 397.385 512 256 512C114.615 512 0 397.385 0 256C0 114.615 114.615 0 256 0C397.385 0 512 114.615 512 256Z" fill="url(#paint0_linear_96_1132)"/>
<path d="M37 190.003L73.2268 203.718L239.951 474.504L206.031 458.874L37 190.003Z" fill="url(#paint1_linear_96_1132)"/>
<path d="M95.6105 283.233C98.5113 278.347 105.581 266.41 108.738 261.399L73.2268 203.73L37 190.016L95.597 283.245L95.6105 283.233Z" fill="url(#paint2_linear_96_1132)"/>
<path d="M37 190.003L41.7493 194.23L65.6441 203.183L233.623 470.115L239.951 474.504L73.2268 203.718L37 190.003Z" fill="url(#paint3_linear_96_1132)"/>
<path d="M37 190.003L41.7493 194.23L65.6441 203.183L73.2268 203.718L37 190.003Z" fill="url(#paint4_linear_96_1132)"/>
<path d="M68.1001 203.357L233.677 468.995L212.562 434.106L70.0025 203.493L68.1001 203.357Z" fill="url(#paint5_linear_96_1132)"/>
<path d="M71.8777 203.631L238.507 473.509L239.951 474.504L73.2269 203.718L71.8777 203.631Z" fill="url(#paint6_linear_96_1132)"/>
<path d="M37 190.003L41.7493 194.23L207.286 459.459L206.031 458.874L37 190.003Z" fill="url(#paint7_linear_96_1132)"/>
<path d="M233.623 470.115L206.409 458.054L207.286 459.459L239.951 474.504L233.623 470.115Z" fill="#FFA100"/>
<path d="M475 184.034L448.164 191.52L279.578 468.51L310.597 455.019L475 184.034Z" fill="url(#paint8_linear_96_1132)"/>
<path d="M279.578 468.511L286.135 465.663L449.027 193.385L451.213 191.619L451.416 190.873L451.308 190.637L448.164 191.52L279.578 468.511Z" fill="url(#paint9_linear_96_1132)"/>
<path d="M372.917 315.138L279.578 468.51L286.135 465.663L282.236 467.217L357.01 343.027L372.917 315.138Z" fill="#E67E04"/>
<path d="M449.027 193.385L471.546 187.18L475 184.035L448.164 191.52L449.027 193.385Z" fill="url(#paint10_linear_96_1132)"/>
<path d="M475 184.034L471.546 187.18L307.52 453.925L279.578 468.51L310.597 455.019L475 184.034Z" fill="url(#paint11_linear_96_1132)"/>
<path d="M379.555 307.006C359.276 340.366 286.135 465.663 286.135 465.663L449.027 193.397C449.027 193.397 439.785 207.634 423.405 234.678C408.321 259.571 390.079 289.673 379.542 307.018L379.555 307.006Z" fill="#F49219"/>
<path d="M475 184.034L473.732 185.191L309.49 454.162L279.578 468.51L310.597 455.019L475 184.034Z" fill="url(#paint12_linear_96_1132)"/>
<path d="M93.5593 161.442L131.095 177.121L254.441 384.171L348.698 228.063H276.204L367.5 76L410.5 79L353.232 181.672H402.384L255.17 431.022L93.5593 161.442Z" fill="url(#paint13_linear_96_1132)"/>
<path d="M368.245 76L318 160.004C328.025 168.297 339.399 177.647 349.869 186.14L412.999 76.0124H368.232L368.245 76Z" fill="url(#paint14_linear_96_1132)"/>
<path d="M127.938 175.803L115.457 197.96L131.567 224.842C134.468 219.943 141.052 208.504 145.343 201.031L131.095 177.109L127.951 175.791L127.938 175.803Z" fill="url(#paint15_linear_96_1132)"/>
<path d="M127.87 178.949L131.095 177.121L93.5593 161.442L97.634 165.11L127.87 178.949Z" fill="url(#paint16_linear_96_1132)"/>
<path d="M345.528 184.234L398.904 185.203L402.385 181.672H353.232L345.528 184.234Z" fill="url(#paint17_linear_96_1132)"/>
<path d="M369.423 78.4992L411 79L413.374 76H367.5L369.423 78.4992Z" fill="url(#paint18_linear_96_1132)"/>
<path d="M368 76L369.5 78.5L279.748 225.614L276.267 228.25L368 76Z" fill="url(#paint19_linear_96_1132)"/>
<path d="M413.379 76L409.966 78.4992L345.528 184.234L353.232 181.672L413.379 76Z" fill="url(#paint20_linear_96_1132)"/>
<path d="M413.379 76L411.287 77.5418L346.769 183.823L350.021 182.742L389.499 118.394L413.379 76Z" fill="url(#paint21_linear_96_1132)"/>
<path d="M353.232 181.672L350.021 182.741L400.792 183.276L402.385 181.672H353.232Z" fill="url(#paint22_linear_96_1132)"/>
<path d="M398.904 185.203L255.17 428.2V431.022L402.385 181.672L398.904 185.203Z" fill="url(#paint23_linear_96_1132)"/>
<path d="M255.17 431.022V428.2L97.634 165.11L93.5593 161.442L255.17 431.022Z" fill="url(#paint24_linear_96_1132)"/>
<path d="M276.205 228.063L279.686 225.427L351.721 226.211L348.699 228.063H276.205Z" fill="url(#paint25_linear_96_1132)"/>
<path d="M348.698 228.063L351.721 226.21L256.371 387.963L254.441 384.171L348.698 228.063Z" fill="#AE6B0F"/>
<path d="M255.264 385.8L350.655 226.869L351.721 226.21L256.371 387.963L255.264 385.8Z" fill="url(#paint26_linear_96_1132)"/>
<path d="M256.371 387.964L255.682 389.207L127.87 178.949L131.095 177.121L254.441 384.171L256.371 387.964Z" fill="url(#paint27_linear_96_1132)"/>
<path d="M129.489 178.029L198.435 292.384L170.411 248.927L127.87 178.949L129.489 178.029Z" fill="url(#paint28_linear_96_1132)"/>
<path d="M170.412 248.927L255.683 389.207L198.435 292.384L170.412 248.927Z" fill="url(#paint29_linear_96_1132)"/>
<path d="M276.205 228.063L277.77 226.869L368 77V76H367.5L276.205 228.063Z" fill="url(#paint30_linear_96_1132)"/>
<path d="M129.49 178.029L97.6343 165.11L127.87 178.949L129.49 178.029Z" fill="#FEBA00"/>
</g>
<defs>
<linearGradient id="paint0_linear_96_1132" x1="457.5" y1="17" x2="71.5" y2="482.5" gradientUnits="userSpaceOnUse">
<stop stop-color="#720000"/>
<stop offset="1"/>
</linearGradient>
<linearGradient id="paint1_linear_96_1132" x1="103.773" y1="275.275" x2="204.916" y2="470.785" gradientUnits="userSpaceOnUse">
<stop stop-color="#DE8800"/>
<stop offset="0.54" stop-color="#EDA900"/>
<stop offset="1" stop-color="#B65F00"/>
</linearGradient>
<linearGradient id="paint2_linear_96_1132" x1="67.9243" y1="202.574" x2="82.6053" y2="283.403" gradientUnits="userSpaceOnUse">
<stop stop-color="#823E01"/>
<stop offset="1" stop-color="#D17304"/>
</linearGradient>
<linearGradient id="paint3_linear_96_1132" x1="85.9095" y1="244.451" x2="220.699" y2="489.698" gradientUnits="userSpaceOnUse">
<stop stop-color="#FFCC00"/>
<stop offset="1" stop-color="#E38300"/>
</linearGradient>
<linearGradient id="paint4_linear_96_1132" x1="40.0493" y1="193.41" x2="74.8298" y2="204.961" gradientUnits="userSpaceOnUse">
<stop stop-color="#FFFFDC"/>
<stop offset="1" stop-color="#F8D815"/>
</linearGradient>
<linearGradient id="paint5_linear_96_1132" x1="84.6012" y1="225.054" x2="213.434" y2="479.358" gradientUnits="userSpaceOnUse">
<stop stop-color="#4F0508"/>
<stop offset="1" stop-color="#C87102"/>
</linearGradient>
<linearGradient id="paint6_linear_96_1132" x1="77.369" y1="206.117" x2="194.004" y2="438.562" gradientUnits="userSpaceOnUse">
<stop stop-color="#4F0508"/>
<stop offset="1" stop-color="#C87102"/>
</linearGradient>
<linearGradient id="paint7_linear_96_1132" x1="61.7313" y1="222.381" x2="152.894" y2="404.232" gradientUnits="userSpaceOnUse">
<stop stop-color="#6A1D07"/>
<stop offset="1" stop-color="#FFA100"/>
</linearGradient>
<linearGradient id="paint8_linear_96_1132" x1="320.945" y1="453.105" x2="414.536" y2="205.04" gradientUnits="userSpaceOnUse">
<stop stop-color="#F47A00"/>
<stop offset="0.04" stop-color="#F58301"/>
<stop offset="0.19" stop-color="#F9A706"/>
<stop offset="0.34" stop-color="#FCC00A"/>
<stop offset="0.48" stop-color="#FED00C"/>
<stop offset="0.58" stop-color="#FFD60D"/>
<stop offset="0.99" stop-color="#DD8B00"/>
</linearGradient>
<linearGradient id="paint9_linear_96_1132" x1="307.763" y1="425.253" x2="428.211" y2="194.377" gradientUnits="userSpaceOnUse">
<stop stop-color="#BB6617"/>
<stop offset="0.98" stop-color="#FBFF88"/>
</linearGradient>
<linearGradient id="paint10_linear_96_1132" x1="450.984" y1="195.001" x2="468.566" y2="181.806" gradientUnits="userSpaceOnUse">
<stop stop-color="#FBFF88"/>
<stop offset="0.99" stop-color="#FFFFD7"/>
</linearGradient>
<linearGradient id="paint11_linear_96_1132" x1="452.347" y1="205.135" x2="314.173" y2="470.639" gradientUnits="userSpaceOnUse">
<stop stop-color="#FF9C36"/>
<stop offset="0.99" stop-color="#E65A04"/>
</linearGradient>
<linearGradient id="paint12_linear_96_1132" x1="428.06" y1="240.111" x2="314.847" y2="466.304" gradientUnits="userSpaceOnUse">
<stop stop-color="#4F0508"/>
<stop offset="1" stop-color="#C06A02"/>
</linearGradient>
<linearGradient id="paint13_linear_96_1132" x1="275.692" y1="118.819" x2="277.181" y2="422.183" gradientUnits="userSpaceOnUse">
<stop stop-color="#FDA103"/>
<stop offset="0.38" stop-color="#C7A434"/>
<stop offset="1" stop-color="#D1AE3E"/>
</linearGradient>
<linearGradient id="paint14_linear_96_1132" x1="330.876" y1="74.8017" x2="286.75" y2="143.992" gradientUnits="userSpaceOnUse">
<stop stop-color="#F7CC35"/>
<stop offset="0.39" stop-color="#F9E63A"/>
<stop offset="0.47" stop-color="#F9F227" stop-opacity="0.9"/>
<stop offset="0.6" stop-color="#F9F402" stop-opacity="0.7"/>
<stop offset="0.75" stop-color="#F6F11C" stop-opacity="0.45"/>
<stop offset="1" stop-color="#F1ED4C" stop-opacity="0"/>
</linearGradient>
<linearGradient id="paint15_linear_96_1132" x1="129.206" y1="182.269" x2="130.914" y2="211.407" gradientUnits="userSpaceOnUse">
<stop stop-color="#F8A914"/>
<stop offset="1" stop-color="#DC9312"/>
</linearGradient>
<linearGradient id="paint16_linear_96_1132" x1="122.096" y1="182.008" x2="104.154" y2="154.5" gradientUnits="userSpaceOnUse">
<stop stop-color="#FFFF52"/>
<stop offset="1" stop-color="#F3FDE8"/>
</linearGradient>
<linearGradient id="paint17_linear_96_1132" x1="349.981" y1="183.152" x2="400.293" y2="183.474" gradientUnits="userSpaceOnUse">
<stop stop-color="#F5F54F"/>
<stop offset="1" stop-color="#EEB400"/>
</linearGradient>
<linearGradient id="paint18_linear_96_1132" x1="418.178" y1="80.0535" x2="379.002" y2="75.2765" gradientUnits="userSpaceOnUse">
<stop stop-color="#FFFF52"/>
<stop offset="1" stop-color="#F3FDE8"/>
</linearGradient>
<linearGradient id="paint19_linear_96_1132" x1="299.007" y1="192.999" x2="396.328" y2="0.133203" gradientUnits="userSpaceOnUse">
<stop stop-color="#E7C21C"/>
<stop offset="0.47" stop-color="#F9EE07"/>
<stop offset="1" stop-color="#E9F7BE"/>
</linearGradient>
<linearGradient id="paint20_linear_96_1132" x1="442.861" y1="12.0485" x2="363.013" y2="193.856" gradientUnits="userSpaceOnUse">
<stop stop-color="#FDFF70"/>
<stop offset="1" stop-color="#D07C00"/>
</linearGradient>
<linearGradient id="paint21_linear_96_1132" x1="352.449" y1="204.563" x2="422.629" y2="16.9754" gradientUnits="userSpaceOnUse">
<stop stop-color="#601800"/>
<stop offset="1" stop-color="#C4883B"/>
</linearGradient>
<linearGradient id="paint22_linear_96_1132" x1="354.689" y1="182.965" x2="402.487" y2="181.706" gradientUnits="userSpaceOnUse">
<stop stop-color="#581D0E"/>
<stop offset="1" stop-color="#B01100"/>
</linearGradient>
<linearGradient id="paint23_linear_96_1132" x1="379.367" y1="223.599" x2="293.288" y2="387.273" gradientUnits="userSpaceOnUse">
<stop stop-color="#2B0900"/>
<stop offset="1" stop-color="#561C00"/>
</linearGradient>
<linearGradient id="paint24_linear_96_1132" x1="112.003" y1="185.377" x2="222.974" y2="414.695" gradientUnits="userSpaceOnUse">
<stop stop-color="#2B0900"/>
<stop offset="1" stop-color="#561C00"/>
</linearGradient>
<linearGradient id="paint25_linear_96_1132" x1="276.205" y1="226.745" x2="351.721" y2="226.745" gradientUnits="userSpaceOnUse">
<stop stop-color="#2B0900"/>
<stop offset="1" stop-color="#561C00"/>
</linearGradient>
<linearGradient id="paint26_linear_96_1132" x1="255.264" y1="307.081" x2="351.721" y2="307.081" gradientUnits="userSpaceOnUse">
<stop stop-color="#2B0900"/>
<stop offset="1" stop-color="#561C00"/>
</linearGradient>
<linearGradient id="paint27_linear_96_1132" x1="148.338" y1="204.24" x2="239.594" y2="398.296" gradientUnits="userSpaceOnUse">
<stop stop-color="#FFFF3C"/>
<stop offset="1" stop-color="#FFC420"/>
</linearGradient>
<linearGradient id="paint28_linear_96_1132" x1="134.819" y1="188.971" x2="187.273" y2="289.021" gradientUnits="userSpaceOnUse">
<stop stop-color="#A56100"/>
<stop offset="1" stop-color="#DFAA00"/>
</linearGradient>
<linearGradient id="paint29_linear_96_1132" x1="183.742" y1="266.148" x2="244.544" y2="395.458" gradientUnits="userSpaceOnUse">
<stop stop-color="#A56100"/>
<stop offset="1" stop-color="#DFAA00"/>
</linearGradient>
<linearGradient id="paint30_linear_96_1132" x1="276.205" y1="114.032" x2="413.165" y2="114.032" gradientUnits="userSpaceOnUse">
<stop offset="0.01" stop-color="#9B7D00"/>
<stop offset="1" stop-color="#F8EF13"/>
</linearGradient>
<clipPath id="clip0_96_1132">
<rect width="512" height="512" fill="white"/>
</clipPath>
</defs>
</svg>
