<svg width="110" height="110" viewBox="0 0 110 110" fill="none" xmlns="http://www.w3.org/2000/svg">
<g clip-path="url(#clip0_343_168)">
<circle cx="55" cy="55" r="54" fill="white"/>
<path d="M89.0898 22.9299L86.0898 25.9299C93.2483 33.7582 97.2181 43.982 97.2181 54.5899C97.2181 65.1977 93.2483 75.4215 86.0898 83.2499L89.0898 86.2499C97.0508 77.6147 101.471 66.2998 101.471 54.5549C101.471 42.8099 97.0508 31.4951 89.0898 22.8599V22.9299Z" fill="#5A5564"/>
<path d="M25.9997 23.19C33.828 16.0315 44.0518 12.0617 54.6597 12.0617C65.2675 12.0617 75.4914 16.0315 83.3197 23.19L86.3197 20.19C77.6845 12.229 66.3696 7.80908 54.6247 7.80908C42.8797 7.80908 31.5649 12.229 22.9297 20.19L25.9997 23.19Z" fill="#5A5564"/>
<path d="M23.1895 83.2802C16.0395 75.4537 12.0749 65.2361 12.0749 54.6352C12.0749 44.0344 16.0395 33.8168 23.1895 25.9902L20.1895 22.9902C12.2285 31.6254 7.80859 42.9403 7.80859 54.6852C7.80859 66.4302 12.2285 77.745 20.1895 86.3802L23.1895 83.2802Z" fill="#5A5564"/>
<path d="M83.2809 86.0498C75.4526 93.2083 65.2288 97.1781 54.6209 97.1781C44.0131 97.1781 33.7893 93.2083 25.9609 86.0498L22.9609 89.0498C31.5961 97.0108 42.911 101.431 54.6559 101.431C66.4009 101.431 77.7157 97.0108 86.3509 89.0498L83.2809 86.0498Z" fill="#5A5564"/>
<path d="M73.5691 44.62C72.9691 38.36 67.5691 36.26 60.7391 35.62V27H55.4591V35.46C54.0691 35.46 52.6491 35.46 51.2391 35.46V27H45.9991V35.68H35.2891V41.33C35.2891 41.33 39.1891 41.26 39.1291 41.33C39.8323 41.2526 40.538 41.4513 41.0977 41.8841C41.6573 42.3168 42.0271 42.95 42.1291 43.65V67.41C42.114 67.6569 42.0497 67.8983 41.9397 68.1198C41.8298 68.3414 41.6766 68.5387 41.4891 68.7C41.3051 68.8644 41.0898 68.9899 40.8561 69.0689C40.6223 69.148 40.3751 69.179 40.1291 69.16C40.1991 69.22 36.2891 69.16 36.2891 69.16L35.2891 75.47H45.8991V84.29H51.1791V75.6H55.3991V84.25H60.6891V75.53C69.6091 74.99 75.8291 72.79 76.6091 64.44C77.2391 57.72 74.0791 54.72 69.0291 53.51C72.0991 52 73.9991 49.2 73.5691 44.62ZM66.1691 63.4C66.1691 69.96 54.9291 69.21 51.3491 69.21V57.57C54.9291 57.58 66.1691 56.55 66.1691 63.4ZM63.7191 47C63.7191 53 54.3391 52.27 51.3591 52.27V41.69C54.3391 41.69 63.7191 40.75 63.7191 47Z" fill="#F09242"/>
<path d="M54.62 109.26C43.8161 109.258 33.2553 106.053 24.273 100.049C15.2907 94.0455 8.29015 85.5133 4.15657 75.5314C0.0229964 65.5495 -1.05802 54.566 1.05021 43.9698C3.15844 33.3735 8.36124 23.6403 16.0008 16.0008C23.6403 8.36124 33.3735 3.15844 43.9698 1.05021C54.566 -1.05802 65.5495 0.0229964 75.5314 4.15657C85.5133 8.29015 94.0455 15.2907 100.049 24.273C106.053 33.2553 109.258 43.8161 109.26 54.62C109.261 61.7958 107.849 68.9016 105.103 75.5314C102.358 82.1612 98.3333 88.1852 93.2593 93.2593C88.1852 98.3333 82.1612 102.358 75.5314 105.103C68.9016 107.849 61.7958 109.261 54.62 109.26ZM54.62 4.26002C44.6663 4.26793 34.9383 7.22654 26.6656 12.7619C18.3929 18.2972 11.9469 26.1609 8.14237 35.3588C4.3378 44.5568 3.34544 54.6762 5.29071 64.438C7.23599 74.1998 12.0316 83.1659 19.0713 90.2028C26.1111 97.2398 35.079 102.032 44.8416 103.973C54.6042 105.915 64.7232 104.918 73.9197 101.11C83.1161 97.3018 90.9772 90.8527 96.5093 82.5778C102.041 74.3029 104.996 64.5738 105 54.62C105.003 48.0042 103.701 41.4528 101.17 35.3404C98.6389 29.2279 94.9277 23.6743 90.2487 18.9972C85.5697 14.32 80.0147 10.6111 73.9012 8.08235C67.7878 5.55363 61.2358 4.25477 54.62 4.26002Z" fill="#282138"/>
</g>
<defs>
<clipPath id="clip0_343_168">
<rect width="109.26" height="109.26" fill="white"/>
</clipPath>
</defs>
</svg>
